<svg id="noun_scan_1934662" xmlns="http://www.w3.org/2000/svg" width="27" height="24" viewBox="0 0 27 24">
  <path id="Shape" d="M23.41,24H16.439v-.833H23.41a1.951,1.951,0,0,0,1.236-.416,1.17,1.17,0,0,0,.472-.9V14.985h.847v6.863A2.382,2.382,0,0,1,23.41,24Zm-12.971-.04H3.469A2.382,2.382,0,0,1,.914,21.809V14.946H1.76v6.862a1.173,1.173,0,0,0,.472.9,1.966,1.966,0,0,0,1.238.416h6.968v.832ZM26.627,12.348H.373A.355.355,0,0,1,0,12.016v-.278a.359.359,0,0,1,.373-.332H26.626a.359.359,0,0,1,.374.332v.278A.359.359,0,0,1,26.627,12.348Zm-.675-3.3H25.1V2.188a1.173,1.173,0,0,0-.473-.9A1.947,1.947,0,0,0,23.4.872H16.426V.036H23.4a2.382,2.382,0,0,1,2.555,2.152V9.05ZM1.7,9.015H.852V2.152A2.382,2.382,0,0,1,3.407,0h6.969V.831H3.4a1.947,1.947,0,0,0-1.235.415,1.171,1.171,0,0,0-.472.9l0,6.865Z" fill="#212227"/>
</svg>
