<svg id="noun_copy_325984" xmlns="http://www.w3.org/2000/svg" width="14" height="14" viewBox="0 0 14 14">
  <path id="Shape" d="M10.5,14H.807A.809.809,0,0,1,0,13.192V3.5a.81.81,0,0,1,.807-.808H2.693V.807A.808.808,0,0,1,3.5,0h9.692A.809.809,0,0,1,14,.807V10.5a.809.809,0,0,1-.808.807H11.308v1.885A.809.809,0,0,1,10.5,14ZM.807,3.231A.269.269,0,0,0,.538,3.5v9.692a.269.269,0,0,0,.269.269H10.5a.269.269,0,0,0,.269-.269V3.5a.269.269,0,0,0-.269-.269ZM3.5.538a.269.269,0,0,0-.269.269V2.693H10.5a.808.808,0,0,1,.807.807v7.269h1.885a.269.269,0,0,0,.269-.269V.807a.269.269,0,0,0-.269-.269Z"/>
</svg>
