<svg xmlns="http://www.w3.org/2000/svg" width="49.48" height="46.56" viewBox="0 0 49.48 46.56">
  <g id="Group_15" data-name="Group 15" transform="translate(-487 -365.5)">
    <g id="noun_Trade_2405850" transform="translate(487.003 365.5)">
      <g id="Group_6" data-name="Group 6" transform="translate(-0.003 0)">
        <path id="Path_3" data-name="Path 3" d="M33.427,13.907a1.562,1.562,0,0,0,.011-2.678L15.323.227A2.074,2.074,0,0,0,13.487.2C13,.477,12.355,1,12.355,1.566V5.274a2.168,2.168,0,0,1-1.773,2.284A12.5,12.5,0,0,0,0,19.689a12.23,12.23,0,0,0,1.161,5.1.708.708,0,0,0,.638.392.691.691,0,0,0,.621-.4A12.324,12.324,0,0,1,9.9,18.115a1.8,1.8,0,0,1,1.743.31,2.007,2.007,0,0,1,.71,1.731v3.413c0,.565.638,1.089,1.129,1.367a2.051,2.051,0,0,0,1.83-.028Z" transform="translate(0.003 0)" fill="#2fae8f"/>
        <path id="Path_4" data-name="Path 4" d="M42.937,14.288a.7.7,0,0,0-.638-.411.684.684,0,0,0-.628.406A11.575,11.575,0,0,1,34.2,20.894a1.879,1.879,0,0,1-1.784-.309,2.03,2.03,0,0,1-.746-1.729V15.442c0-.567-.6-1.089-1.092-1.365a2,2,0,0,0-1.81.028l-18.1,11a1.559,1.559,0,0,0,0,2.676l18.116,11a2,2,0,0,0,1.8.028c.491-.278,1.095-.8,1.095-1.367V33.735a2.2,2.2,0,0,1,1.81-2.284A12.521,12.521,0,0,0,44.085,19.321,14.094,14.094,0,0,0,42.937,14.288Z" transform="translate(5.395 7.55)" fill="#fff"/>
      </g>
    </g>
  </g>
</svg>
