<svg xmlns="http://www.w3.org/2000/svg" width="198.083" height="164.695" viewBox="0 0 198.083 164.695">
  <g id="Group_13" data-name="Group 13" transform="translate(-93.54 -306.045)">
    <path id="Rectangle" d="M-2.046,111.149C-30.947,48.167,43.256-4.085,111.941,5.1h0c42.609,5.7,68.7,73.176,41,106.052l-5.313,6.307q-1.309,1.554-2.689,3.046h0c-39.66,42.892-100.275,72.425-124.639,19.33Z" transform="translate(102 302)" fill="#37d6ae"/>
    <path id="Rectangle-2" data-name="Rectangle" d="M-20.922,29.418C-20.922-19.183,39.4,0,88,0h0a4.137,4.137,0,0,1,3.607,4.051l-.887,7.64A88,88,0,0,1,22.245,87.476h0C12.894,89.537,0,79.175,0,69.6Z" transform="translate(200 383)" fill="#fff" opacity="0.32"/>
  </g>
</svg>
