<svg xmlns="http://www.w3.org/2000/svg" width="262.593" height="236.806" viewBox="0 0 262.593 236.806">
  <g id="Group_11" data-name="Group 11" transform="translate(-600 -266)">
    <path id="Rectangle" d="M0,88A88,88,0,0,1,88,0h55.168a88,88,0,0,1,87.44,97.909l-4.418,38.985a88,88,0,0,1-68.053,75.928l-50.75,11.463C52.351,236.717,0,194.871,0,138.448Z" transform="translate(600 266)" fill="#37d6ae"/>
    <path id="Rectangle-2" data-name="Rectangle" d="M0,88A88,88,0,0,1,88,0h0c15.532,0,32.248,18.764,30.461,34.193l-.252,2.174a88,88,0,0,1-68.426,75.8h0C28.268,116.924,0,94.221,0,72.186Z" transform="translate(744 390)" fill="#fff" opacity="0.32"/>
  </g>
</svg>
