<svg xmlns="http://www.w3.org/2000/svg" width="49" height="49" viewBox="0 0 49 49">
  <g id="Group_14" data-name="Group 14" transform="translate(-936 -631)">
    <g id="Group_4" data-name="Group 4" transform="translate(936 631)">
      <rect id="Rectangle" width="49" height="49" rx="11" fill="#32c09d"/>
      <g id="noun_chat_107264" transform="translate(12 14)">
        <g id="Group">
          <path id="Path" d="M8.891,17.85V14.56a.514.514,0,0,0-.5-.517H5.373A4.478,4.478,0,0,1,1,9.573V5.479A4.381,4.381,0,0,1,5.3,1.032h8.736a4.213,4.213,0,0,1,3.113,1.4h1.29A5.257,5.257,0,0,0,14.039,0H5.3A5.4,5.4,0,0,0,0,5.479V9.573a5.447,5.447,0,0,0,5.373,5.506H7.891v3.8a.515.515,0,0,0,.274.462.471.471,0,0,0,.524-.047l4.578-3.514a4.588,4.588,0,0,1-1.361-.244Z" transform="translate(0.171 0.209)"/>
          <path id="Path-2" data-name="Path" d="M7.68,0H5.174A5.6,5.6,0,0,1,5.7,1.032H7.679a3.781,3.781,0,0,1,3.71,3.839V8.463A3.778,3.778,0,0,1,7.679,12.3a.484.484,0,0,0-.3.1L3.222,15.6V12.839a.506.506,0,0,0-.5-.516H2.507a5.138,5.138,0,0,1-1.566.3L0,13.346c.026,0,.05.007.076.007l2.146,0v3.268a.52.52,0,0,0,.278.46.48.48,0,0,0,.522-.046L7.85,13.33a4.8,4.8,0,0,0,4.541-4.868V4.871A4.8,4.8,0,0,0,7.68,0Z" transform="translate(13.438 2.638)"/>
          <path id="Path-3" data-name="Path" d="M1,8.463V4.871A3.781,3.781,0,0,1,4.71,1.032H9.279A4.462,4.462,0,0,0,8.581,0H4.71A4.8,4.8,0,0,0,0,4.871V8.463A4.869,4.869,0,0,0,3.336,13.1l1.068-.82A3.873,3.873,0,0,1,1,8.463Z" transform="translate(8.742 2.638)"/>
          <path id="Path-4" data-name="Path" d="M3.867.041l-2.43,0A3.642,3.642,0,0,1,1.068,0L0,.82a4.567,4.567,0,0,0,1.361.244L2.3.341A5.136,5.136,0,0,0,3.867.041Z" transform="translate(12.078 14.921)"/>
          <path id="Path-5" data-name="Path" d="M.7,1.032H1.81A5.6,5.6,0,0,0,1.289,0H0A4.5,4.5,0,0,1,.7,1.032Z" transform="translate(17.324 2.638)"/>
        </g>
      </g>
    </g>
  </g>
</svg>
