<svg xmlns="http://www.w3.org/2000/svg" xlink="http://www.w3.org/1999/xlink" width="131.697" height="20.423" viewBox="0 0 131.697 20.423">
	<defs>
		<clipPath id="clip-path">
			<rect width="131.697" height="20.423" fill="none" />
		</clipPath>
	</defs>
	<g
		id="Component_3_1"
		data-name="Component 3 – 1"
		clip-path="url(#clip-path)"
	>
		<g id="noun_Track_2263780">
			<path
				id="Path"
				d="M0,1.271a8.846,8.846,0,0,1,8.728,8.94A8.846,8.846,0,0,1,0,19.152v1.271A10.1,10.1,0,0,0,9.968,10.212,10.1,10.1,0,0,0,0,0Z"
				transform="translate(5.835)"
				fill="#fff"
			/>
			<path
				id="Oval"
				d="M5.957,0a6.018,6.018,0,0,1,5.957,6.078,6.018,6.018,0,0,1-5.957,6.078A6.018,6.018,0,0,1,0,6.078,6.018,6.018,0,0,1,5.957,0Z"
				transform="translate(0 4.133)"
				fill="#37d6ae"
			/>
			<path
				id="Intersection_1"
				data-name="Intersection 1"
				d="M0,0A4.365,4.365,0,1,1,0,8.731Z"
				transform="translate(6.236 5.768)"
				fill="#fff"
			/>
		</g>
		<text
			id="Coin_Recycle"
			data-name="Coin Recycle"
			transform="translate(23.697 15.027)"
			fill="#fff"
			font-size="15"
			font-family="HeliosRounded, Helios Rounded"
		>
			<tspan x="0" y="0">Coin</tspan>
			<tspan y="0" fill="#37d6ae">Recycle</tspan>
		</text>
	</g>
</svg>
