<svg id="noun_qr_1635947" xmlns="http://www.w3.org/2000/svg" width="106" height="106" viewBox="0 0 106 106">
  <path id="Shape" d="M31,31H0V0H31V31ZM8.858,8.858V22.144H22.144V8.858Z" fill="#212227"/>
  <path id="Shape-2" data-name="Shape" d="M31,31H0V0H31V31ZM8.858,8.859V22.144H22.144V8.859Z" transform="translate(0 75)" fill="#212227"/>
  <path id="Shape-3" data-name="Shape" d="M31,31H0V0H31V31ZM8.856,8.858V22.144H22.143V8.858Z" transform="translate(75)" fill="#212227"/>
  <path id="Path" d="M22.142,0V26.251H0V35H31V0Z" transform="translate(75 40)" fill="#212227"/>
  <path id="Path-2" data-name="Path" d="M0,0V22H8.856V8.8H22.142V22H31V0Z" transform="translate(75 84)" fill="#212227"/>
  <path id="Path-3" data-name="Path" d="M0,0V8.858H18V31h9V0Z" transform="translate(40)" fill="#212227"/>
  <path id="Path-4" data-name="Path" d="M17.6,0V17.6H0V44H17.6V66h8.8V35.2H8.8V26.4H26.4V8.8h8.8v8.8H44V0Z" transform="translate(40 40)" fill="#212227"/>
  <rect id="Rectangle" width="9" height="13" transform="translate(40 93)" fill="#212227"/>
  <rect id="Rectangle-2" data-name="Rectangle" width="13" height="9" transform="translate(18 57)" fill="#212227"/>
  <path id="Path-5" data-name="Path" d="M40.091,0V22.273H0V49H8.909V31.182H49V0Z" transform="translate(0 17)" fill="#212227"/>
</svg>
